<mxfile modified="2023-04-12T15:36:57.153Z" host="app.diagrams.net" agent="Mozilla/5.0 (Windows NT 10.0; Win64; x64) AppleWebKit/537.36 (KHTML, like Gecko) Chrome/112.0.0.0 Safari/537.36 Edg/112.0.1722.39" etag="BymRW45E6Efnvr0C8gns" version="21.1.7" type="device">
  <diagram id="Ht1M8jgEwFfnCIfOTk4-" name="Page-1">
    <mxGraphModel dx="2100" dy="1098" grid="1" gridSize="10" guides="1" tooltips="1" connect="1" arrows="1" fold="1" page="1" pageScale="1" pageWidth="1169" pageHeight="827" math="0" shadow="0">
      <root>
        <mxCell id="0" />
        <mxCell id="1" parent="0" />
        <mxCell id="7OVz4w7n9kzEPWy-4BBC-3" value="" style="rounded=0;whiteSpace=wrap;html=1;fillColor=#EAEDED;fontSize=22;fontColor=#FFFFFF;strokeColor=none;labelBackgroundColor=none;" parent="1" vertex="1">
          <mxGeometry x="1130.5" y="90" width="539" height="560" as="geometry" />
        </mxCell>
        <mxCell id="7OVz4w7n9kzEPWy-4BBC-4" value="1" style="rounded=1;whiteSpace=wrap;html=1;fillColor=#007CBD;strokeColor=none;fontColor=#FFFFFF;fontStyle=1;fontSize=22;labelBackgroundColor=none;" parent="1" vertex="1">
          <mxGeometry x="1148.5" y="175.75" width="40" height="38" as="geometry" />
        </mxCell>
        <mxCell id="7OVz4w7n9kzEPWy-4BBC-5" value="2" style="rounded=1;whiteSpace=wrap;html=1;fillColor=#007CBD;strokeColor=none;fontColor=#FFFFFF;fontStyle=1;fontSize=22;labelBackgroundColor=none;" parent="1" vertex="1">
          <mxGeometry x="1149.5" y="232.75" width="40" height="38" as="geometry" />
        </mxCell>
        <mxCell id="7OVz4w7n9kzEPWy-4BBC-6" value="3" style="rounded=1;whiteSpace=wrap;html=1;fillColor=#007CBD;strokeColor=none;fontColor=#FFFFFF;fontStyle=1;fontSize=22;labelBackgroundColor=none;" parent="1" vertex="1">
          <mxGeometry x="1149.5" y="291.25" width="40" height="38" as="geometry" />
        </mxCell>
        <mxCell id="7OVz4w7n9kzEPWy-4BBC-7" value="4" style="rounded=1;whiteSpace=wrap;html=1;fillColor=#007CBD;strokeColor=none;fontColor=#FFFFFF;fontStyle=1;fontSize=22;labelBackgroundColor=none;" parent="1" vertex="1">
          <mxGeometry x="1149" y="352.75" width="40" height="38" as="geometry" />
        </mxCell>
        <mxCell id="7OVz4w7n9kzEPWy-4BBC-8" value="5" style="rounded=1;whiteSpace=wrap;html=1;fillColor=#007CBD;strokeColor=none;fontColor=#FFFFFF;fontStyle=1;fontSize=22;labelBackgroundColor=none;" parent="1" vertex="1">
          <mxGeometry x="1149.5" y="415" width="40" height="38" as="geometry" />
        </mxCell>
        <mxCell id="7OVz4w7n9kzEPWy-4BBC-9" value="6" style="rounded=1;whiteSpace=wrap;html=1;fillColor=#007CBD;strokeColor=none;fontColor=#FFFFFF;fontStyle=1;fontSize=22;labelBackgroundColor=none;" parent="1" vertex="1">
          <mxGeometry x="1148.5" y="468.5" width="40" height="38" as="geometry" />
        </mxCell>
        <mxCell id="7OVz4w7n9kzEPWy-4BBC-10" value="7" style="rounded=1;whiteSpace=wrap;html=1;fillColor=#007CBD;strokeColor=none;fontColor=#FFFFFF;fontStyle=1;fontSize=22;labelBackgroundColor=none;" parent="1" vertex="1">
          <mxGeometry x="1149.5" y="526.75" width="40" height="38" as="geometry" />
        </mxCell>
        <mxCell id="7OVz4w7n9kzEPWy-4BBC-13" value="VPC with public and private subnets in 2 availability zones" style="text;html=1;align=left;verticalAlign=top;spacingTop=-4;fontSize=14;labelBackgroundColor=none;whiteSpace=wrap;" parent="1" vertex="1">
          <mxGeometry x="1200" y="175.25" width="449" height="37.5" as="geometry" />
        </mxCell>
        <mxCell id="7OVz4w7n9kzEPWy-4BBC-14" value="An Internet Gateway is used to allow communication between instances in VPC and the Internet." style="text;html=1;align=left;verticalAlign=top;spacingTop=-4;fontSize=14;labelBackgroundColor=none;whiteSpace=wrap;" parent="1" vertex="1">
          <mxGeometry x="1201.5" y="229.5" width="450" height="44.5" as="geometry" />
        </mxCell>
        <mxCell id="7OVz4w7n9kzEPWy-4BBC-15" value="We are using 2 Availability Zones for high availability and fault tolerance." style="text;html=1;align=left;verticalAlign=top;spacingTop=-4;fontSize=14;labelBackgroundColor=none;whiteSpace=wrap;" parent="1" vertex="1">
          <mxGeometry x="1201.5" y="291.25" width="450" height="46.5" as="geometry" />
        </mxCell>
        <mxCell id="7OVz4w7n9kzEPWy-4BBC-16" value="Resources such as Nat Gateway, Bastion Host, and Application Load Balancer use Public Subnets." style="text;html=1;align=left;verticalAlign=top;spacingTop=-4;fontSize=14;labelBackgroundColor=none;whiteSpace=wrap;" parent="1" vertex="1">
          <mxGeometry x="1201.5" y="352.75" width="450" height="50.5" as="geometry" />
        </mxCell>
        <mxCell id="7OVz4w7n9kzEPWy-4BBC-17" value="We will put the webservers and database servers in the Private Subnets to protect them." style="text;html=1;align=left;verticalAlign=top;spacingTop=-4;fontSize=14;labelBackgroundColor=none;whiteSpace=wrap;" parent="1" vertex="1">
          <mxGeometry x="1202.5" y="415" width="449" height="53.5" as="geometry" />
        </mxCell>
        <mxCell id="7OVz4w7n9kzEPWy-4BBC-18" value="The Public Route Table is associated with the public subnets and routes traffic to the internet through the internet gateway." style="text;html=1;align=left;verticalAlign=top;spacingTop=-4;fontSize=14;labelBackgroundColor=none;whiteSpace=wrap;" parent="1" vertex="1">
          <mxGeometry x="1199" y="468.5" width="450" height="47.5" as="geometry" />
        </mxCell>
        <mxCell id="7OVz4w7n9kzEPWy-4BBC-19" value="The Main Route Table is associated with the private subnets." style="text;html=1;align=left;verticalAlign=top;spacingTop=-4;fontSize=14;labelBackgroundColor=none;whiteSpace=wrap;" parent="1" vertex="1">
          <mxGeometry x="1202.5" y="526.75" width="449" height="32.5" as="geometry" />
        </mxCell>
        <mxCell id="_ccgsprbn8yP-Y3nOW4L-1" value="&lt;font style=&quot;font-size: 18px;&quot;&gt;Region: us-east-1&lt;/font&gt;" style="points=[[0,0],[0.25,0],[0.5,0],[0.75,0],[1,0],[1,0.25],[1,0.5],[1,0.75],[1,1],[0.75,1],[0.5,1],[0.25,1],[0,1],[0,0.75],[0,0.5],[0,0.25]];outlineConnect=0;gradientColor=none;html=1;whiteSpace=wrap;fontSize=12;fontStyle=0;container=1;pointerEvents=0;collapsible=0;recursiveResize=0;shape=mxgraph.aws4.group;grIcon=mxgraph.aws4.group_region;strokeColor=#147EBA;fillColor=none;verticalAlign=top;align=left;spacingLeft=30;fontColor=#147EBA;dashed=1;" vertex="1" parent="1">
          <mxGeometry x="80" y="50" width="1000" height="610" as="geometry" />
        </mxCell>
        <mxCell id="_ccgsprbn8yP-Y3nOW4L-2" value="&lt;font color=&quot;#000000&quot; style=&quot;font-size: 18px;&quot;&gt;Dev VPC - 10.0.0.0/16&lt;/font&gt;" style="points=[[0,0],[0.25,0],[0.5,0],[0.75,0],[1,0],[1,0.25],[1,0.5],[1,0.75],[1,1],[0.75,1],[0.5,1],[0.25,1],[0,1],[0,0.75],[0,0.5],[0,0.25]];outlineConnect=0;gradientColor=none;html=1;whiteSpace=wrap;fontSize=12;fontStyle=0;container=1;pointerEvents=0;collapsible=0;recursiveResize=0;shape=mxgraph.aws4.group;grIcon=mxgraph.aws4.group_vpc;strokeColor=#248814;fillColor=none;verticalAlign=top;align=left;spacingLeft=30;fontColor=#AAB7B8;dashed=0;" vertex="1" parent="_ccgsprbn8yP-Y3nOW4L-1">
          <mxGeometry x="40" y="44" width="910" height="536" as="geometry" />
        </mxCell>
        <mxCell id="_ccgsprbn8yP-Y3nOW4L-4" value="Availability Zone 1: us-east-1a" style="rounded=1;arcSize=10;dashed=1;strokeColor=#F59D56;fillColor=none;gradientColor=none;dashPattern=8 4;strokeWidth=2;verticalAlign=top;fontSize=14;" vertex="1" parent="_ccgsprbn8yP-Y3nOW4L-2">
          <mxGeometry x="70" y="40.5" width="770" height="179.5" as="geometry" />
        </mxCell>
        <mxCell id="_ccgsprbn8yP-Y3nOW4L-9" value="Availability Zone 2: us-east-1b" style="rounded=1;arcSize=10;dashed=1;strokeColor=#F59D56;fillColor=none;gradientColor=none;dashPattern=8 4;strokeWidth=2;verticalAlign=bottom;fontSize=14;" vertex="1" parent="_ccgsprbn8yP-Y3nOW4L-2">
          <mxGeometry x="79" y="330" width="770" height="175.5" as="geometry" />
        </mxCell>
        <mxCell id="_ccgsprbn8yP-Y3nOW4L-10" value="&lt;font style=&quot;font-size: 14px;&quot;&gt;Internet&lt;br&gt;gateway&lt;/font&gt;" style="sketch=0;outlineConnect=0;fontColor=#232F3E;gradientColor=none;strokeColor=#232F3E;fillColor=#ffffff;dashed=0;verticalLabelPosition=bottom;verticalAlign=top;align=center;html=1;fontSize=12;fontStyle=0;aspect=fixed;shape=mxgraph.aws4.resourceIcon;resIcon=mxgraph.aws4.internet_gateway;" vertex="1" parent="_ccgsprbn8yP-Y3nOW4L-2">
          <mxGeometry x="-30" y="249" width="60" height="60" as="geometry" />
        </mxCell>
        <mxCell id="_ccgsprbn8yP-Y3nOW4L-11" value="&lt;font style=&quot;font-size: 18px;&quot;&gt;Public subnet AZ1: 10.0.0.0/24&lt;/font&gt;" style="points=[[0,0],[0.25,0],[0.5,0],[0.75,0],[1,0],[1,0.25],[1,0.5],[1,0.75],[1,1],[0.75,1],[0.5,1],[0.25,1],[0,1],[0,0.75],[0,0.5],[0,0.25]];outlineConnect=0;gradientColor=none;html=1;whiteSpace=wrap;fontSize=12;fontStyle=0;container=1;pointerEvents=0;collapsible=0;recursiveResize=0;shape=mxgraph.aws4.group;grIcon=mxgraph.aws4.group_security_group;grStroke=0;strokeColor=#248814;fillColor=#E9F3E6;verticalAlign=top;align=left;spacingLeft=30;fontColor=#248814;dashed=0;" vertex="1" parent="_ccgsprbn8yP-Y3nOW4L-2">
          <mxGeometry x="110" y="70" width="190" height="110" as="geometry" />
        </mxCell>
        <mxCell id="_ccgsprbn8yP-Y3nOW4L-13" value="&lt;font style=&quot;font-size: 18px;&quot;&gt;Public subnet AZ2: 10.0.1.0/24&lt;/font&gt;" style="points=[[0,0],[0.25,0],[0.5,0],[0.75,0],[1,0],[1,0.25],[1,0.5],[1,0.75],[1,1],[0.75,1],[0.5,1],[0.25,1],[0,1],[0,0.75],[0,0.5],[0,0.25]];outlineConnect=0;gradientColor=none;html=1;whiteSpace=wrap;fontSize=12;fontStyle=0;container=1;pointerEvents=0;collapsible=0;recursiveResize=0;shape=mxgraph.aws4.group;grIcon=mxgraph.aws4.group_security_group;grStroke=0;strokeColor=#248814;fillColor=#E9F3E6;verticalAlign=top;align=left;spacingLeft=30;fontColor=#248814;dashed=0;" vertex="1" parent="_ccgsprbn8yP-Y3nOW4L-2">
          <mxGeometry x="110" y="362.75" width="190" height="110" as="geometry" />
        </mxCell>
        <mxCell id="_ccgsprbn8yP-Y3nOW4L-21" style="edgeStyle=orthogonalEdgeStyle;rounded=0;orthogonalLoop=1;jettySize=auto;html=1;" edge="1" parent="_ccgsprbn8yP-Y3nOW4L-2" source="_ccgsprbn8yP-Y3nOW4L-14" target="_ccgsprbn8yP-Y3nOW4L-10">
          <mxGeometry relative="1" as="geometry" />
        </mxCell>
        <mxCell id="_ccgsprbn8yP-Y3nOW4L-31" style="edgeStyle=orthogonalEdgeStyle;rounded=0;orthogonalLoop=1;jettySize=auto;html=1;" edge="1" parent="_ccgsprbn8yP-Y3nOW4L-2" source="_ccgsprbn8yP-Y3nOW4L-14" target="_ccgsprbn8yP-Y3nOW4L-13">
          <mxGeometry relative="1" as="geometry" />
        </mxCell>
        <mxCell id="_ccgsprbn8yP-Y3nOW4L-32" style="edgeStyle=orthogonalEdgeStyle;rounded=0;orthogonalLoop=1;jettySize=auto;html=1;entryX=0.175;entryY=0.755;entryDx=0;entryDy=0;entryPerimeter=0;" edge="1" parent="_ccgsprbn8yP-Y3nOW4L-2" source="_ccgsprbn8yP-Y3nOW4L-14" target="_ccgsprbn8yP-Y3nOW4L-4">
          <mxGeometry relative="1" as="geometry" />
        </mxCell>
        <mxCell id="_ccgsprbn8yP-Y3nOW4L-14" value="&lt;font style=&quot;font-size: 14px;&quot;&gt;Public Route Table&lt;/font&gt;" style="rounded=0;whiteSpace=wrap;html=1;fillColor=#d5e8d4;strokeColor=#82b366;" vertex="1" parent="_ccgsprbn8yP-Y3nOW4L-2">
          <mxGeometry x="145" y="249" width="120" height="60" as="geometry" />
        </mxCell>
        <mxCell id="_ccgsprbn8yP-Y3nOW4L-33" style="edgeStyle=orthogonalEdgeStyle;rounded=0;orthogonalLoop=1;jettySize=auto;html=1;" edge="1" parent="_ccgsprbn8yP-Y3nOW4L-2" source="_ccgsprbn8yP-Y3nOW4L-15" target="_ccgsprbn8yP-Y3nOW4L-25">
          <mxGeometry relative="1" as="geometry" />
        </mxCell>
        <mxCell id="_ccgsprbn8yP-Y3nOW4L-34" style="edgeStyle=orthogonalEdgeStyle;rounded=0;orthogonalLoop=1;jettySize=auto;html=1;" edge="1" parent="_ccgsprbn8yP-Y3nOW4L-2" source="_ccgsprbn8yP-Y3nOW4L-15" target="_ccgsprbn8yP-Y3nOW4L-17">
          <mxGeometry relative="1" as="geometry" />
        </mxCell>
        <mxCell id="_ccgsprbn8yP-Y3nOW4L-35" style="edgeStyle=orthogonalEdgeStyle;rounded=0;orthogonalLoop=1;jettySize=auto;html=1;" edge="1" parent="_ccgsprbn8yP-Y3nOW4L-2" source="_ccgsprbn8yP-Y3nOW4L-15" target="_ccgsprbn8yP-Y3nOW4L-16">
          <mxGeometry relative="1" as="geometry" />
        </mxCell>
        <mxCell id="_ccgsprbn8yP-Y3nOW4L-36" style="edgeStyle=orthogonalEdgeStyle;rounded=0;orthogonalLoop=1;jettySize=auto;html=1;" edge="1" parent="_ccgsprbn8yP-Y3nOW4L-2" source="_ccgsprbn8yP-Y3nOW4L-15" target="_ccgsprbn8yP-Y3nOW4L-18">
          <mxGeometry relative="1" as="geometry" />
        </mxCell>
        <mxCell id="_ccgsprbn8yP-Y3nOW4L-15" value="&lt;font style=&quot;font-size: 14px;&quot;&gt;Main Route Table&lt;/font&gt;" style="rounded=0;whiteSpace=wrap;html=1;fillColor=#dae8fc;strokeColor=#6c8ebf;" vertex="1" parent="_ccgsprbn8yP-Y3nOW4L-2">
          <mxGeometry x="404" y="249" width="120" height="60" as="geometry" />
        </mxCell>
        <mxCell id="_ccgsprbn8yP-Y3nOW4L-16" value="&lt;font style=&quot;font-size: 18px;&quot;&gt;Private App Subnet AZ2:&lt;br&gt;10.0.3.0/24&lt;/font&gt;" style="points=[[0,0],[0.25,0],[0.5,0],[0.75,0],[1,0],[1,0.25],[1,0.5],[1,0.75],[1,1],[0.75,1],[0.5,1],[0.25,1],[0,1],[0,0.75],[0,0.5],[0,0.25]];outlineConnect=0;gradientColor=none;html=1;whiteSpace=wrap;fontSize=12;fontStyle=0;container=1;pointerEvents=0;collapsible=0;recursiveResize=0;shape=mxgraph.aws4.group;grIcon=mxgraph.aws4.group_security_group;grStroke=0;strokeColor=#147EBA;fillColor=#E6F2F8;verticalAlign=top;align=left;spacingLeft=30;fontColor=#147EBA;dashed=0;" vertex="1" parent="_ccgsprbn8yP-Y3nOW4L-2">
          <mxGeometry x="370" y="362.75" width="190" height="110" as="geometry" />
        </mxCell>
        <mxCell id="_ccgsprbn8yP-Y3nOW4L-17" value="&lt;font style=&quot;font-size: 18px;&quot;&gt;Private Database Subnet AZ2: 10.0.5.0/24&lt;/font&gt;" style="points=[[0,0],[0.25,0],[0.5,0],[0.75,0],[1,0],[1,0.25],[1,0.5],[1,0.75],[1,1],[0.75,1],[0.5,1],[0.25,1],[0,1],[0,0.75],[0,0.5],[0,0.25]];outlineConnect=0;gradientColor=none;html=1;whiteSpace=wrap;fontSize=12;fontStyle=0;container=1;pointerEvents=0;collapsible=0;recursiveResize=0;shape=mxgraph.aws4.group;grIcon=mxgraph.aws4.group_security_group;grStroke=0;strokeColor=#147EBA;fillColor=#E6F2F8;verticalAlign=top;align=left;spacingLeft=30;fontColor=#147EBA;dashed=0;" vertex="1" parent="_ccgsprbn8yP-Y3nOW4L-2">
          <mxGeometry x="610" y="362.75" width="190" height="110" as="geometry" />
        </mxCell>
        <mxCell id="_ccgsprbn8yP-Y3nOW4L-18" value="&lt;font style=&quot;font-size: 18px;&quot;&gt;Private App Subnet AZ1:&lt;br&gt;10.0.2.0/24&lt;/font&gt;" style="points=[[0,0],[0.25,0],[0.5,0],[0.75,0],[1,0],[1,0.25],[1,0.5],[1,0.75],[1,1],[0.75,1],[0.5,1],[0.25,1],[0,1],[0,0.75],[0,0.5],[0,0.25]];outlineConnect=0;gradientColor=none;html=1;whiteSpace=wrap;fontSize=12;fontStyle=0;container=1;pointerEvents=0;collapsible=0;recursiveResize=0;shape=mxgraph.aws4.group;grIcon=mxgraph.aws4.group_security_group;grStroke=0;strokeColor=#147EBA;fillColor=#E6F2F8;verticalAlign=top;align=left;spacingLeft=30;fontColor=#147EBA;dashed=0;" vertex="1" parent="_ccgsprbn8yP-Y3nOW4L-2">
          <mxGeometry x="369" y="70" width="190" height="110" as="geometry" />
        </mxCell>
        <mxCell id="_ccgsprbn8yP-Y3nOW4L-19" value="7" style="rounded=1;whiteSpace=wrap;html=1;fillColor=#007CBD;strokeColor=none;fontColor=#FFFFFF;fontStyle=1;fontSize=22;labelBackgroundColor=none;" vertex="1" parent="_ccgsprbn8yP-Y3nOW4L-2">
          <mxGeometry x="380" y="236" width="40" height="38" as="geometry" />
        </mxCell>
        <mxCell id="_ccgsprbn8yP-Y3nOW4L-20" value="6" style="rounded=1;whiteSpace=wrap;html=1;fillColor=#007CBD;strokeColor=none;fontColor=#FFFFFF;fontStyle=1;fontSize=22;labelBackgroundColor=none;" vertex="1" parent="_ccgsprbn8yP-Y3nOW4L-2">
          <mxGeometry x="250" y="236" width="40" height="38" as="geometry" />
        </mxCell>
        <mxCell id="_ccgsprbn8yP-Y3nOW4L-23" value="1" style="rounded=1;whiteSpace=wrap;html=1;fillColor=#007CBD;strokeColor=none;fontColor=#FFFFFF;fontStyle=1;fontSize=22;labelBackgroundColor=none;" vertex="1" parent="_ccgsprbn8yP-Y3nOW4L-2">
          <mxGeometry x="-20" y="56" width="40" height="38" as="geometry" />
        </mxCell>
        <mxCell id="_ccgsprbn8yP-Y3nOW4L-25" value="&lt;font style=&quot;font-size: 18px;&quot;&gt;Private Database Subnet AZ1: 10.0.4.0/24&lt;/font&gt;" style="points=[[0,0],[0.25,0],[0.5,0],[0.75,0],[1,0],[1,0.25],[1,0.5],[1,0.75],[1,1],[0.75,1],[0.5,1],[0.25,1],[0,1],[0,0.75],[0,0.5],[0,0.25]];outlineConnect=0;gradientColor=none;html=1;whiteSpace=wrap;fontSize=12;fontStyle=0;container=1;pointerEvents=0;collapsible=0;recursiveResize=0;shape=mxgraph.aws4.group;grIcon=mxgraph.aws4.group_security_group;grStroke=0;strokeColor=#147EBA;fillColor=#E6F2F8;verticalAlign=top;align=left;spacingLeft=30;fontColor=#147EBA;dashed=0;" vertex="1" parent="_ccgsprbn8yP-Y3nOW4L-2">
          <mxGeometry x="610" y="70" width="190" height="110" as="geometry" />
        </mxCell>
        <mxCell id="_ccgsprbn8yP-Y3nOW4L-26" value="5" style="rounded=1;whiteSpace=wrap;html=1;fillColor=#007CBD;strokeColor=none;fontColor=#FFFFFF;fontStyle=1;fontSize=22;labelBackgroundColor=none;" vertex="1" parent="_ccgsprbn8yP-Y3nOW4L-2">
          <mxGeometry x="540" y="126" width="40" height="38" as="geometry" />
        </mxCell>
        <mxCell id="_ccgsprbn8yP-Y3nOW4L-27" value="3" style="rounded=1;whiteSpace=wrap;html=1;fillColor=#007CBD;strokeColor=none;fontColor=#FFFFFF;fontStyle=1;fontSize=22;labelBackgroundColor=none;" vertex="1" parent="_ccgsprbn8yP-Y3nOW4L-2">
          <mxGeometry x="50" y="146" width="40" height="38" as="geometry" />
        </mxCell>
        <mxCell id="_ccgsprbn8yP-Y3nOW4L-28" value="4" style="rounded=1;whiteSpace=wrap;html=1;fillColor=#007CBD;strokeColor=none;fontColor=#FFFFFF;fontStyle=1;fontSize=22;labelBackgroundColor=none;" vertex="1" parent="_ccgsprbn8yP-Y3nOW4L-2">
          <mxGeometry x="280" y="108" width="40" height="38" as="geometry" />
        </mxCell>
        <mxCell id="_ccgsprbn8yP-Y3nOW4L-37" style="edgeStyle=orthogonalEdgeStyle;rounded=0;orthogonalLoop=1;jettySize=auto;html=1;exitX=0.5;exitY=1;exitDx=0;exitDy=0;" edge="1" parent="_ccgsprbn8yP-Y3nOW4L-1" source="_ccgsprbn8yP-Y3nOW4L-2" target="_ccgsprbn8yP-Y3nOW4L-2">
          <mxGeometry relative="1" as="geometry" />
        </mxCell>
      </root>
    </mxGraphModel>
  </diagram>
</mxfile>
